<?xml version="1.0" standalone="no"?>
<!DOCTYPE svg PUBLIC "-//W3C//DTD SVG 20010904//EN"
 "http://www.w3.org/TR/2001/REC-SVG-20010904/DTD/svg10.dtd">
<svg version="1.0" xmlns="http://www.w3.org/2000/svg"
 width="640.000000pt" height="640.000000pt" viewBox="0 0 640.000000 640.000000"
 preserveAspectRatio="xMidYMid meet">
<metadata>
Created by potrace 1.11, written by Peter Selinger 2001-2013
</metadata>
<g transform="translate(0.000000,640.000000) scale(0.100000,-0.100000)"
fill="#000000" stroke="none">
<path d="M650 6328 c-58 -67 -87 -101 -133 -154 -17 -21 -15 -23 145 -155 90
-73 165 -136 168 -139 3 -3 158 -132 345 -286 187 -155 386 -319 441 -365 56
-46 121 -99 144 -118 22 -19 53 -44 68 -57 15 -12 113 -93 217 -179 235 -194
299 -248 495 -410 85 -70 175 -144 199 -164 25 -20 61 -50 80 -67 20 -16 114
-94 208 -172 l172 -142 23 19 c20 17 224 186 333 276 22 18 162 133 310 256
149 123 306 253 350 289 44 36 85 70 91 75 14 14 53 45 404 335 168 139 316
261 330 273 14 12 115 96 225 186 110 91 216 178 235 195 20 17 55 47 80 66
133 106 305 254 308 264 1 6 -8 22 -20 36 -13 14 -48 54 -78 90 -30 35 -66 77
-80 92 l-25 28 -130 -106 c-72 -58 -161 -131 -200 -162 -38 -32 -76 -63 -83
-69 -7 -7 -57 -48 -110 -90 -53 -43 -101 -83 -107 -88 -5 -6 -44 -38 -85 -71
-41 -32 -77 -61 -80 -64 -3 -3 -104 -86 -225 -185 -121 -99 -225 -184 -231
-190 -6 -5 -30 -26 -54 -45 -40 -32 -170 -138 -275 -224 -114 -94 -568 -466
-605 -496 -45 -37 -228 -188 -268 -221 -12 -10 -27 -19 -33 -19 -8 0 -98 68
-119 90 -3 3 -41 35 -85 70 -80 65 -118 96 -139 115 -6 6 -45 37 -86 70 -41
33 -86 69 -100 81 -14 12 -142 117 -285 234 -143 116 -280 229 -305 249 -58
49 -205 170 -360 296 -68 55 -128 105 -134 110 -6 6 -34 28 -61 50 -52 42 -90
73 -109 90 -6 6 -31 26 -56 45 -25 19 -47 37 -50 40 -3 3 -59 50 -125 104
-136 110 -180 146 -280 229 -38 32 -77 63 -85 70 -8 7 -36 29 -62 50 l-46 38
-62 -73z"/>
<path d="M200 2131 l0 -2131 165 0 165 0 0 1776 0 1775 29 -23 c16 -13 73 -59
127 -103 55 -43 101 -82 104 -85 5 -5 86 -72 133 -110 11 -8 24 -20 31 -25 6
-6 47 -39 91 -75 44 -35 82 -67 85 -70 3 -3 26 -22 52 -43 26 -21 53 -43 60
-50 7 -7 99 -82 203 -167 105 -85 217 -177 250 -205 65 -54 89 -74 270 -221
66 -54 122 -101 125 -104 3 -3 52 -44 110 -91 58 -47 115 -93 125 -102 34 -28
503 -413 650 -534 155 -126 182 -149 207 -170 17 -15 37 -3 134 82 25 21 104
87 224 185 69 56 136 111 150 124 14 12 86 71 160 131 74 60 137 112 140 115
3 3 27 24 55 45 27 22 59 48 70 57 11 9 79 65 150 123 72 59 144 119 161 134
17 14 50 42 74 61 24 19 123 100 220 180 97 80 196 161 220 180 51 41 235 194
267 221 13 10 55 45 95 77 40 33 183 150 318 261 l245 202 3 -1776 2 -1775
165 0 165 0 0 2131 c0 1650 -3 2129 -12 2123 -7 -4 -167 -136 -357 -292 -191
-157 -363 -299 -385 -316 -21 -17 -43 -36 -50 -41 -6 -6 -54 -45 -106 -88 -52
-43 -104 -86 -115 -96 -11 -9 -96 -79 -190 -155 -93 -77 -207 -170 -252 -208
-99 -82 -214 -176 -343 -282 -52 -43 -106 -88 -120 -100 -14 -12 -47 -39 -75
-61 -27 -22 -52 -42 -55 -45 -3 -3 -30 -25 -60 -50 -30 -25 -57 -47 -60 -50
-3 -3 -52 -43 -110 -90 -58 -47 -114 -93 -125 -102 -26 -21 -218 -180 -270
-223 -22 -18 -80 -66 -130 -106 -118 -97 -122 -100 -153 -127 -15 -12 -32 -20
-39 -18 -7 3 -90 69 -185 148 -155 127 -420 346 -473 390 -83 68 -168 138
-205 168 -24 19 -73 60 -109 90 -37 30 -87 71 -111 92 -25 20 -102 83 -171
140 -69 56 -183 150 -254 208 -70 58 -135 112 -144 120 -9 8 -37 31 -61 50
-46 36 -84 67 -104 85 -6 6 -47 40 -91 75 -44 36 -91 74 -105 86 -31 27 -273
226 -319 262 -18 15 -38 32 -45 37 -6 6 -65 55 -131 109 -66 53 -134 110 -150
124 -17 15 -51 43 -75 62 -25 19 -50 39 -56 45 -17 15 -98 83 -154 127 l-50
40 0 -2131z"/>
</g>
</svg>
