<?xml version="1.0" encoding="utf-8"?>
<!-- Generator: Adobe Illustrator 21.1.0, SVG Export Plug-In . SVG Version: 6.00 Build 0)  -->
<svg version="1.1" id="Layer_1" xmlns="http://www.w3.org/2000/svg" xmlns:xlink="http://www.w3.org/1999/xlink" x="0px" y="0px"
	 viewBox="0 0 32 32" style="enable-background:new 0 0 32 32;" xml:space="preserve">
<style type="text/css">
	.st0{fill:#B2AEAB;}
	.st1{fill:#FFFFFF;}
</style>
<g id="Style_2_copy_4">
	<g>
		<g>
			<path class="st0" d="M16,0C7.2,0,0,7.2,0,16c0,8.8,7.2,16,16,16s16-7.2,16-16C32,7.2,24.8,0,16,0z"/>
		</g>
	</g>
	<g>
		<path class="st1" d="M25,11.1l-5.8-2.9c0,0-0.1,0-0.1,0c0,0,0,0,0,0c-0.1,0-0.1,0-0.2,0.1L15.4,14l4,6.4l5.7-9.2
			C25.1,11.2,25,11.1,25,11.1z"/>
		<polygon class="st1" points="13.5,12 13.5,18.2 19,21 		"/>
		<path class="st1" d="M19.5,21.2l5.1,2.5c0.3,0.1,0.5,0,0.5-0.3V12.2L19.5,21.2z"/>
		<path class="st1" d="M12.9,11.1L7.6,8.4L7.2,8.3c0,0-0.1,0-0.1,0C7,8.2,7,8.3,7,8.3c0,0-0.1,0.1-0.1,0.2v12.1
			c0,0.2,0.2,0.5,0.3,0.5l5.2,2.6c0.1,0,0.1,0.1,0.2,0.1c0.2,0,0.3-0.1,0.3-0.4V11.2C13,11.2,12.9,11.1,12.9,11.1z"/>
	</g>
</g>
</svg>
